<svg viewBox="0 0 1320 760" role="img" aria-labelledby="archify-diagram-title archify-diagram-description" data-preset="classic" data-quality-profile="showcase">
        <title id="archify-diagram-title">DSH 鑳藉姏涓績鐩爣鏋舵瀯</title>
        <desc id="archify-diagram-description">A architecture diagram generated by Archify.</desc>
        <!-- Definitions -->
        <defs>
          <marker id="arrowhead" markerWidth="10" markerHeight="7" refX="9" refY="3.5" orient="auto">
            <polygon points="0 0, 10 3.5, 0 7" class="m-default" />
          </marker>
          <marker id="arrowhead-emphasis" markerWidth="10" markerHeight="7" refX="9" refY="3.5" orient="auto">
            <polygon points="0 0, 10 3.5, 0 7" class="m-emphasis" />
          </marker>
          <marker id="arrowhead-security" markerWidth="10" markerHeight="7" refX="9" refY="3.5" orient="auto">
            <polygon points="0 0, 10 3.5, 0 7" class="m-security" />
          </marker>
          <marker id="arrowhead-dashed" markerWidth="10" markerHeight="7" refX="9" refY="3.5" orient="auto">
            <polygon points="0 0, 10 3.5, 0 7" class="m-dashed" />
          </marker>
          <pattern id="grid" width="40" height="40" patternUnits="userSpaceOnUse">
            <path d="M 40 0 L 0 0 0 40" class="c-grid" stroke-width="0.5"/>
          </pattern>
        </defs>

        <!-- Background Grid -->
        <rect width="100%" height="100%" fill="url(#grid)" />

        <!-- Boundaries (behind everything) -->
        <rect data-graph-role="structural-frame" data-composition-frame-kind="region" data-composition-frame-id="0" x="215" y="10" width="1045" height="674" rx="12" class="c-region" stroke-width="1"/>
        <text x="223" y="28" class="t-cloud" font-size="9" font-weight="600">鑳藉姏涓績鏍稿績</text>

        <rect data-graph-role="structural-frame" data-composition-frame-kind="security-group" data-composition-frame-id="1" x="725" y="570" width="255" height="116" rx="8" class="c-security-group" stroke-width="1"/>
        <text x="733" y="588" class="t-security" font-size="9" font-weight="600">鏁忔劅鍑嵁杈圭晫</text>

        <!-- Connection paths (before components for correct z-order) -->
        <path data-edge-from="user" data-edge-to="ui" data-edge-label="缁熶竴浜や簰" data-edge-key="0" data-edge-id="user-ui" data-composition-points="185,333;245,333" d="M 185 333 L 245 333" class="a-emphasis" stroke-width="1.8" marker-end="url(#arrowhead-emphasis)"/>
        <path data-edge-from="ui" data-edge-to="aggregator" data-edge-label="璇诲彇鑱氬悎瑙嗗浘" data-edge-key="1" data-edge-id="ui-read" data-composition-points="420,326;452.5,326;452.5,205;485,205" d="M 420 326 L 444.5 326 Q 452.5 326 452.5 318 L 452.5 213 Q 452.5 205 460.5 205 L 485 205" class="a-emphasis" stroke-width="1.8" marker-end="url(#arrowhead-emphasis)"/>
        <path data-edge-from="ui" data-edge-to="orchestrator" data-edge-label="鎻愪氦杩炴帴鎰忓浘" data-edge-key="2" data-edge-id="ui-intent" data-composition-points="420,340;452.5,340;452.5,465;485,465" d="M 420 340 L 444.5 340 Q 452.5 340 452.5 348 L 452.5 457 Q 452.5 465 460.5 465 L 485 465" class="a-emphasis" stroke-width="1.8" marker-end="url(#arrowhead-emphasis)"/>
        <path data-edge-from="catalog" data-edge-to="aggregator" data-edge-label="搴旂敤涓庢柟娉? data-edge-key="3" data-edge-id="catalog-read" data-composition-points="575,104;575,128;596,128;596,146;580,146;580,170" d="M 575 104 L 575 120 Q 575 128 583 128 L 588 128 Q 596 128 596 136 L 596 138 Q 596 146 588 146 L 588 146 Q 580 146 580 154 L 580 170" class="a-default" stroke-width="1.5" marker-end="url(#arrowhead)"/>
        <path data-edge-from="runtime" data-edge-to="orchestrator" data-edge-label="鎭㈠ Run" data-edge-key="4" data-edge-id="runtime-read" data-composition-points="575,600;575,576;596,576;596,524;580,524;580,500" d="M 575 600 L 575 584 Q 575 576 583 576 L 588 576 Q 596 576 596 568 L 596 532 Q 596 524 588 524 L 588 524 Q 580 524 580 516 L 580 500" class="a-default" stroke-width="1.5" marker-end="url(#arrowhead)"/>
        <path data-edge-from="aggregator" data-edge-to="providers" data-edge-label="鍙戠幇瀹炰緥涓庡姩浣? data-edge-key="5" data-edge-id="provider-discovery" data-composition-points="675,205;715,205;715,156;755,156" d="M 675 205 L 707 205 Q 715 205 715 197 L 715 164 Q 715 156 723 156 L 755 156" class="a-default" stroke-width="1.5" marker-end="url(#arrowhead)"/>
        <path data-edge-from="providers" data-edge-to="dshim" data-edge-label="濮旀墭绠＄悊涓庤瘖鏂? data-edge-key="6" data-edge-id="provider-delegate" data-composition-points="950,156;995,156;995,115;1040,115" d="M 950 156 L 987 156 Q 995 156 995 148 L 995 123 Q 995 115 1003 115 L 1040 115" class="a-emphasis" stroke-width="1.8" marker-end="url(#arrowhead-emphasis)"/>
        <path data-edge-from="orchestrator" data-edge-to="recipe" data-edge-label="鍚姩 Recipe" data-edge-key="7" data-edge-id="recipe-start" data-composition-points="675,458;755,458" d="M 675 458 L 755 458" class="a-default" stroke-width="1.5" marker-end="url(#arrowhead)"/>
        <path data-edge-from="recipe" data-edge-to="executors" data-edge-label="鎵ц鍙楅檺姝ラ" data-edge-key="8" data-edge-id="recipe-execute" data-composition-points="930,465;977.5,465;977.5,441;1025,441" d="M 930 465 L 969.5 465 Q 977.5 465 977.5 457 L 977.5 449 Q 977.5 441 985.5 441 L 1025 441" class="a-default" stroke-width="1.5" marker-end="url(#arrowhead)"/>
        <path data-edge-from="executors" data-edge-to="external" data-edge-label="瀹樻柟鍗忚璋冪敤" data-edge-key="9" data-edge-id="executor-service" data-composition-points="1127.5,477;1127.5,501;1151,501;1151,576;1135,576;1135,600" d="M 1127.5 477 L 1127.5 493 Q 1127.5 501 1135.5 501 L 1143 501 Q 1151 501 1151 509 L 1151 568 Q 1151 576 1143 576 L 1143 576 Q 1135 576 1135 584 L 1135 600" class="a-default" stroke-width="1.5" marker-end="url(#arrowhead)"/>
        <path data-edge-from="recipe" data-edge-to="credentials" data-edge-label="credential:// 寮曠敤" data-edge-key="10" data-edge-id="recipe-secret" data-composition-points="842.5,500;842.5,524;868.5,524;868.5,576;852.5,576;852.5,600" d="M 842.5 500 L 842.5 516 Q 842.5 524 850.5 524 L 860.5 524 Q 868.5 524 868.5 532 L 868.5 568 Q 868.5 576 860.5 576 L 860.5 576 Q 852.5 576 852.5 584 L 852.5 600" class="a-security" stroke-width="1.5" marker-end="url(#arrowhead-security)"/>
        <path data-edge-from="recipe" data-edge-to="runtime" data-edge-label="姝ラ缁撴灉涓?Evidence" data-edge-key="11" data-edge-id="run-evidence" data-composition-points="755,472;710,472;710,632;665,632" d="M 755 472 L 718 472 Q 710 472 710 480 L 710 624 Q 710 632 702 632 L 665 632" class="a-default" stroke-width="1.5" marker-end="url(#arrowhead)"/>

        <!-- Components -->
        <g id="node-user" data-node-id="user" data-node-label="鐢ㄦ埛 / Agent" tabindex="0" role="button" aria-label="Focus 鐢ㄦ埛 / Agent, 鍙戠幇銆佽繛鎺ャ€佸垏鎹㈣处鍙? Architecture component" aria-pressed="false" data-node-kind="external" data-node-sublabel="鍙戠幇銆佽繛鎺ャ€佸垏鎹㈣处鍙? data-node-context="Architecture component">
          <title>鐢ㄦ埛 / Agent 路 鍙戠幇銆佽繛鎺ャ€佸垏鎹㈣处鍙?路 Architecture component</title>
          <rect x="40" y="300" width="145" height="66" rx="6" class="c-mask"/>
          <rect x="40" y="300" width="145" height="66" rx="6" class="c-external" stroke-width="1.5"/>
          <g aria-hidden="true" data-semantic-sigil="external" class="semantic-sigil s-external" transform="translate(46 306) scale(0.6875)">
            <rect x="2.5" y="5" width="8.5" height="8" rx="1.5"/>
            <path d="M8 2.5h5.5V8M13.5 2.5 7.5 8.5"/>
          </g>
          <text data-detail-anchor x="112.5" y="331" class="t-primary" font-size="11" font-weight="600" text-anchor="middle">鐢ㄦ埛 / Agent</text>
        <text data-detail="context" x="112.5" y="347" class="t-muted" font-size="9" text-anchor="middle">鍙戠幇銆佽繛鎺ャ€佸垏鎹㈣处鍙?/text>
        </g>

        <g id="node-ui" data-node-id="ui" data-node-label="缁熶竴鑳藉姏涓績 UI" tabindex="0" role="button" aria-label="Focus 缁熶竴鑳藉姏涓績 UI, 搴旂敤 路 杩炴帴瀹炰緥 路 Provider, 鑳藉姏涓績鏍稿績" aria-pressed="false" data-node-kind="frontend" data-node-sublabel="搴旂敤 路 杩炴帴瀹炰緥 路 Provider" data-node-context="鑳藉姏涓績鏍稿績">
          <title>缁熶竴鑳藉姏涓績 UI 路 搴旂敤 路 杩炴帴瀹炰緥 路 Provider 路 鑳藉姏涓績鏍稿績</title>
          <rect x="245" y="300" width="175" height="66" rx="6" class="c-mask"/>
          <rect x="245" y="300" width="175" height="66" rx="6" class="c-frontend" stroke-width="1.5"/>
          <g aria-hidden="true" data-semantic-sigil="frontend" class="semantic-sigil s-frontend" transform="translate(251 306) scale(0.6875)">
            <rect x="2" y="3" width="12" height="10" rx="2"/>
            <path d="M2 6.5h12"/>
            <circle cx="4.1" cy="4.8" r=".7" class="sigil-fill"/>
            <circle cx="6.3" cy="4.8" r=".7" class="sigil-fill"/>
          </g>
          <text data-detail-anchor x="332.5" y="331" class="t-primary" font-size="11" font-weight="600" text-anchor="middle">缁熶竴鑳藉姏涓績 UI</text>
        <text data-detail="context" x="332.5" y="347" class="t-muted" font-size="9" text-anchor="middle">搴旂敤 路 杩炴帴瀹炰緥 路 Provider</text>
        </g>

        <g id="node-aggregator" data-node-id="aggregator" data-node-label="Connection Aggregator" tabindex="0" role="button" aria-label="Focus Connection Aggregator, 鑱氬悎銆佸綊灞炪€佺姸鎬佹爣鍑嗗寲, 鑳藉姏涓績鏍稿績" aria-pressed="false" data-node-kind="backend" data-node-sublabel="鑱氬悎銆佸綊灞炪€佺姸鎬佹爣鍑嗗寲" data-node-context="鑳藉姏涓績鏍稿績">
          <title>Connection Aggregator 路 鑱氬悎銆佸綊灞炪€佺姸鎬佹爣鍑嗗寲 路 鑳藉姏涓績鏍稿績</title>
          <rect x="485" y="170" width="190" height="70" rx="6" class="c-mask"/>
          <rect x="485" y="170" width="190" height="70" rx="6" class="c-backend" stroke-width="1.5"/>
          <g aria-hidden="true" data-semantic-sigil="backend" class="semantic-sigil s-backend" transform="translate(491 176) scale(0.6875)">
            <path d="M6 3 3 8l3 5M10 3l3 5-3 5"/>
          </g>
          <text data-detail-anchor x="580" y="203" class="t-primary" font-size="11" font-weight="600" text-anchor="middle">Connection Aggregator</text>
        <text data-detail="context" x="580" y="219" class="t-muted" font-size="9" text-anchor="middle">鑱氬悎銆佸綊灞炪€佺姸鎬佹爣鍑嗗寲</text>
        </g>

        <g id="node-orchestrator" data-node-id="orchestrator" data-node-label="Connection Orchestrator" tabindex="0" role="button" aria-label="Focus Connection Orchestrator, 鎰忓浘銆佽鍒掋€佹殏鍋滀笌鎭㈠, 鑳藉姏涓績鏍稿績" aria-pressed="false" data-node-kind="backend" data-node-sublabel="鎰忓浘銆佽鍒掋€佹殏鍋滀笌鎭㈠" data-node-context="鑳藉姏涓績鏍稿績">
          <title>Connection Orchestrator 路 鎰忓浘銆佽鍒掋€佹殏鍋滀笌鎭㈠ 路 鑳藉姏涓績鏍稿績</title>
          <rect x="485" y="430" width="190" height="70" rx="6" class="c-mask"/>
          <rect x="485" y="430" width="190" height="70" rx="6" class="c-backend" stroke-width="1.5"/>
          <g aria-hidden="true" data-semantic-sigil="backend" class="semantic-sigil s-backend" transform="translate(491 436) scale(0.6875)">
            <path d="M6 3 3 8l3 5M10 3l3 5-3 5"/>
          </g>
          <text data-detail-anchor x="580" y="463" class="t-primary" font-size="11" font-weight="600" text-anchor="middle">Connection Orchestrator</text>
        <text data-detail="context" x="580" y="479" class="t-muted" font-size="9" text-anchor="middle">鎰忓浘銆佽鍒掋€佹殏鍋滀笌鎭㈠</text>
        </g>

        <g id="node-providers" data-node-id="providers" data-node-label="Capability Provider Registry" tabindex="0" role="button" aria-label="Focus Capability Provider Registry, SPI 路 鍔ㄤ綔 路 Evidence, 鑳藉姏涓績鏍稿績" aria-pressed="false" data-node-kind="backend" data-node-sublabel="SPI 路 鍔ㄤ綔 路 Evidence" data-node-context="鑳藉姏涓績鏍稿績">
          <title>Capability Provider Registry 路 SPI 路 鍔ㄤ綔 路 Evidence 路 鑳藉姏涓績鏍稿績</title>
          <rect x="755" y="120" width="195" height="72" rx="6" class="c-mask"/>
          <rect x="755" y="120" width="195" height="72" rx="6" class="c-backend" stroke-width="1.5"/>
          <g aria-hidden="true" data-semantic-sigil="backend" class="semantic-sigil s-backend" transform="translate(761 126) scale(0.6875)">
            <path d="M6 3 3 8l3 5M10 3l3 5-3 5"/>
          </g>
          <text data-detail-anchor x="852.5" y="154" class="t-primary" font-size="11" font-weight="600" text-anchor="middle">Capability Provider Registry</text>
        <text data-detail="context" x="852.5" y="170" class="t-muted" font-size="9" text-anchor="middle">SPI 路 鍔ㄤ綔 路 Evidence</text>
        </g>

        <g id="node-recipe" data-node-id="recipe" data-node-label="Recipe Engine" tabindex="0" role="button" aria-label="Focus Recipe Engine, 鐗堟湰鍖栫姸鎬佹満, 鑳藉姏涓績鏍稿績" aria-pressed="false" data-node-kind="backend" data-node-sublabel="鐗堟湰鍖栫姸鎬佹満" data-node-context="鑳藉姏涓績鏍稿績">
          <title>Recipe Engine 路 鐗堟湰鍖栫姸鎬佹満 路 鑳藉姏涓績鏍稿績</title>
          <rect x="755" y="430" width="175" height="70" rx="6" class="c-mask"/>
          <rect x="755" y="430" width="175" height="70" rx="6" class="c-backend" stroke-width="1.5"/>
          <g aria-hidden="true" data-semantic-sigil="backend" class="semantic-sigil s-backend" transform="translate(761 436) scale(0.6875)">
            <path d="M6 3 3 8l3 5M10 3l3 5-3 5"/>
          </g>
          <text data-detail-anchor x="842.5" y="463" class="t-primary" font-size="11" font-weight="600" text-anchor="middle">Recipe Engine</text>
        <text data-detail="context" x="842.5" y="479" class="t-muted" font-size="9" text-anchor="middle">鐗堟湰鍖栫姸鎬佹満</text>
        </g>

        <g id="node-catalog" data-node-id="catalog" data-node-label="Catalog SQLite" tabindex="0" role="button" aria-label="Focus Catalog SQLite, 瀹樻柟鏉ユ簮 路 鏂规硶 路 Recipe, 鑳藉姏涓績鏍稿績" aria-pressed="false" data-node-kind="database" data-node-sublabel="瀹樻柟鏉ユ簮 路 鏂规硶 路 Recipe" data-node-context="鑳藉姏涓績鏍稿績">
          <title>Catalog SQLite 路 瀹樻柟鏉ユ簮 路 鏂规硶 路 Recipe 路 鑳藉姏涓績鏍稿績</title>
          <rect x="485" y="40" width="180" height="64" rx="6" class="c-mask"/>
          <rect x="485" y="40" width="180" height="64" rx="6" class="c-database" stroke-width="1.5"/>
          <g aria-hidden="true" data-semantic-sigil="database" class="semantic-sigil s-database" transform="translate(491 46) scale(0.6875)">
            <ellipse cx="8" cy="4" rx="5" ry="2"/>
            <path d="M3 4v8c0 1.1 2.2 2 5 2s5-.9 5-2V4M3 8c0 1.1 2.2 2 5 2s5-.9 5-2"/>
          </g>
          <text data-detail-anchor x="575" y="70" class="t-primary" font-size="11" font-weight="600" text-anchor="middle">Catalog SQLite</text>
        <text data-detail="context" x="575" y="86" class="t-muted" font-size="9" text-anchor="middle">瀹樻柟鏉ユ簮 路 鏂规硶 路 Recipe</text>
        </g>

        <g id="node-runtime" data-node-id="runtime" data-node-label="Runtime SQLite" tabindex="0" role="button" aria-label="Focus Runtime SQLite, 瀹炰緥 路 Run 路 Evidence, 鑳藉姏涓績鏍稿績" aria-pressed="false" data-node-kind="database" data-node-sublabel="瀹炰緥 路 Run 路 Evidence" data-node-context="鑳藉姏涓績鏍稿績">
          <title>Runtime SQLite 路 瀹炰緥 路 Run 路 Evidence 路 鑳藉姏涓績鏍稿績</title>
          <rect x="485" y="600" width="180" height="64" rx="6" class="c-mask"/>
          <rect x="485" y="600" width="180" height="64" rx="6" class="c-database" stroke-width="1.5"/>
          <g aria-hidden="true" data-semantic-sigil="database" class="semantic-sigil s-database" transform="translate(491 606) scale(0.6875)">
            <ellipse cx="8" cy="4" rx="5" ry="2"/>
            <path d="M3 4v8c0 1.1 2.2 2 5 2s5-.9 5-2V4M3 8c0 1.1 2.2 2 5 2s5-.9 5-2"/>
          </g>
          <text data-detail-anchor x="575" y="630" class="t-primary" font-size="11" font-weight="600" text-anchor="middle">Runtime SQLite</text>
        <text data-detail="context" x="575" y="646" class="t-muted" font-size="9" text-anchor="middle">瀹炰緥 路 Run 路 Evidence</text>
        </g>

        <g id="node-dshim" data-node-id="dshim" data-node-label="@xmanrui/dsh-im" tabindex="0" role="button" aria-label="Focus @xmanrui/dsh-im, 濮旀墭鎵樼 IM 澶氳处鍙? Architecture component" aria-pressed="false" data-node-kind="external" data-node-sublabel="濮旀墭鎵樼 IM 澶氳处鍙? data-node-tag="棣栭€?IM Provider" data-node-context="Architecture component">
          <title>@xmanrui/dsh-im 路 濮旀墭鎵樼 IM 澶氳处鍙?路 Architecture component 路 棣栭€?IM Provider</title>
          <rect x="1040" y="80" width="190" height="70" rx="6" class="c-mask"/>
          <rect x="1040" y="80" width="190" height="70" rx="6" class="c-external" stroke-width="1.5"/>
          <g aria-hidden="true" data-semantic-sigil="external" class="semantic-sigil s-external" transform="translate(1046 86) scale(0.6875)">
            <rect x="2.5" y="5" width="8.5" height="8" rx="1.5"/>
            <path d="M8 2.5h5.5V8M13.5 2.5 7.5 8.5"/>
          </g>
          <text data-detail-anchor x="1135" y="113" class="t-primary" font-size="11" font-weight="600" text-anchor="middle">@xmanrui/dsh-im</text>
        <text data-detail="context" x="1135" y="129" class="t-muted" font-size="9" text-anchor="middle">濮旀墭鎵樼 IM 澶氳处鍙?/text>
        <text data-detail="fine" x="1135" y="142" class="t-external" font-size="7" text-anchor="middle">棣栭€?IM Provider</text>
        </g>

        <g id="node-executors" data-node-id="executors" data-node-label="鍙楅檺 Step Executors" tabindex="0" role="button" aria-label="Focus 鍙楅檺 Step Executors, CLI 路 MCP 路 OAuth 路 API, 鑳藉姏涓績鏍稿績" aria-pressed="false" data-node-kind="backend" data-node-sublabel="CLI 路 MCP 路 OAuth 路 API" data-node-context="鑳藉姏涓績鏍稿績">
          <title>鍙楅檺 Step Executors 路 CLI 路 MCP 路 OAuth 路 API 路 鑳藉姏涓績鏍稿績</title>
          <rect x="1025" y="405" width="205" height="72" rx="6" class="c-mask"/>
          <rect x="1025" y="405" width="205" height="72" rx="6" class="c-backend" stroke-width="1.5"/>
          <g aria-hidden="true" data-semantic-sigil="backend" class="semantic-sigil s-backend" transform="translate(1031 411) scale(0.6875)">
            <path d="M6 3 3 8l3 5M10 3l3 5-3 5"/>
          </g>
          <text data-detail-anchor x="1127.5" y="439" class="t-primary" font-size="11" font-weight="600" text-anchor="middle">鍙楅檺 Step Executors</text>
        <text data-detail="context" x="1127.5" y="455" class="t-muted" font-size="9" text-anchor="middle">CLI 路 MCP 路 OAuth 路 API</text>
        </g>

        <g id="node-credentials" data-node-id="credentials" data-node-label="DSH Credential Store" tabindex="0" role="button" aria-label="Focus DSH Credential Store, 鍙繚瀛?secret锛岃繑鍥炲紩鐢? 鏁忔劅鍑嵁杈圭晫" aria-pressed="false" data-node-kind="security" data-node-sublabel="鍙繚瀛?secret锛岃繑鍥炲紩鐢? data-node-context="鏁忔劅鍑嵁杈圭晫">
          <title>DSH Credential Store 路 鍙繚瀛?secret锛岃繑鍥炲紩鐢?路 鏁忔劅鍑嵁杈圭晫</title>
          <rect x="755" y="600" width="195" height="66" rx="6" class="c-mask"/>
          <rect x="755" y="600" width="195" height="66" rx="6" class="c-security" stroke-width="1.5"/>
          <g aria-hidden="true" data-semantic-sigil="security" class="semantic-sigil s-security" transform="translate(761 606) scale(0.6875)">
            <path d="M8 2.2 13 4v3.5c0 3.1-1.8 5.4-5 6.5-3.2-1.1-5-3.4-5-6.5V4Z"/>
            <path d="m5.8 8 1.5 1.5 3-3"/>
          </g>
          <text data-detail-anchor x="852.5" y="631" class="t-primary" font-size="11" font-weight="600" text-anchor="middle">DSH Credential Store</text>
        <text data-detail="context" x="852.5" y="647" class="t-muted" font-size="9" text-anchor="middle">鍙繚瀛?secret锛岃繑鍥炲紩鐢?/text>
        </g>

        <g id="node-external" data-node-id="external" data-node-label="瀹樻柟搴旂敤涓庢湇鍔? tabindex="0" role="button" aria-label="Focus 瀹樻柟搴旂敤涓庢湇鍔? API 路 OAuth 路 MCP 路 CLI, Architecture component" aria-pressed="false" data-node-kind="cloud" data-node-sublabel="API 路 OAuth 路 MCP 路 CLI" data-node-context="Architecture component">
          <title>瀹樻柟搴旂敤涓庢湇鍔?路 API 路 OAuth 路 MCP 路 CLI 路 Architecture component</title>
          <rect x="1040" y="600" width="190" height="66" rx="6" class="c-mask"/>
          <rect x="1040" y="600" width="190" height="66" rx="6" class="c-cloud" stroke-width="1.5"/>
          <g aria-hidden="true" data-semantic-sigil="cloud" class="semantic-sigil s-cloud" transform="translate(1046 606) scale(0.6875)">
            <path d="M4.3 12.5h7.3a2.4 2.4 0 0 0 .2-4.8 4 4 0 0 0-7.5-1.3A3.1 3.1 0 0 0 4.3 12.5Z"/>
          </g>
          <text data-detail-anchor x="1135" y="631" class="t-primary" font-size="11" font-weight="600" text-anchor="middle">瀹樻柟搴旂敤涓庢湇鍔?/text>
        <text data-detail="context" x="1135" y="647" class="t-muted" font-size="9" text-anchor="middle">API 路 OAuth 路 MCP 路 CLI</text>
        </g>

        <!-- Connection labels -->
        <g data-detail="context" data-edge-from="user" data-edge-to="ui" data-edge-label="缁熶竴浜や簰" data-edge-key="0" data-edge-id="user-ui">
          <rect x="190.8" y="313" width="48.4" height="14" rx="3" class="c-mask"/>
          <text x="215" y="323" class="t-backend" font-size="8" text-anchor="middle">缁熶竴浜や簰</text>
        </g>
        <g data-detail="context" data-edge-from="ui" data-edge-to="aggregator" data-edge-label="璇诲彇鑱氬悎瑙嗗浘" data-edge-key="1" data-edge-id="ui-read">
          <rect x="418.7" y="245.5" width="67.6" height="14" rx="3" class="c-mask"/>
          <text x="452.5" y="255.5" class="t-backend" font-size="8" text-anchor="middle">璇诲彇鑱氬悎瑙嗗浘</text>
        </g>
        <g data-detail="context" data-edge-from="ui" data-edge-to="orchestrator" data-edge-label="鎻愪氦杩炴帴鎰忓浘" data-edge-key="2" data-edge-id="ui-intent">
          <rect x="418.7" y="382.5" width="67.6" height="14" rx="3" class="c-mask"/>
          <text x="452.5" y="392.5" class="t-backend" font-size="8" text-anchor="middle">鎻愪氦杩炴帴鎰忓浘</text>
        </g>
        <g data-detail="context" data-edge-from="catalog" data-edge-to="aggregator" data-edge-label="搴旂敤涓庢柟娉? data-edge-key="3" data-edge-id="catalog-read">
          <rect x="556.5" y="108" width="58" height="14" rx="3" class="c-mask"/>
          <text x="585.5" y="118" class="t-muted" font-size="8" text-anchor="middle">搴旂敤涓庢柟娉?/text>
        </g>
        <g data-detail="context" data-edge-from="runtime" data-edge-to="orchestrator" data-edge-label="鎭㈠ Run" data-edge-key="4" data-edge-id="runtime-read">
          <rect x="561.3" y="556" width="48.4" height="14" rx="3" class="c-mask"/>
          <text x="585.5" y="566" class="t-muted" font-size="8" text-anchor="middle">鎭㈠ Run</text>
        </g>
        <g data-detail="context" data-edge-from="aggregator" data-edge-to="providers" data-edge-label="鍙戠幇瀹炰緥涓庡姩浣? data-edge-key="5" data-edge-id="provider-discovery">
          <rect x="676.4" y="160.5" width="77.2" height="14" rx="3" class="c-mask"/>
          <text x="715" y="170.5" class="t-muted" font-size="8" text-anchor="middle">鍙戠幇瀹炰緥涓庡姩浣?/text>
        </g>
        <g data-detail="context" data-edge-from="providers" data-edge-to="dshim" data-edge-label="濮旀墭绠＄悊涓庤瘖鏂? data-edge-key="6" data-edge-id="provider-delegate">
          <rect x="956.4" y="115.5" width="77.2" height="14" rx="3" class="c-mask"/>
          <text x="995" y="125.5" class="t-backend" font-size="8" text-anchor="middle">濮旀墭绠＄悊涓庤瘖鏂?/text>
        </g>
        <g data-detail="context" data-edge-from="orchestrator" data-edge-to="recipe" data-edge-label="鍚姩 Recipe" data-edge-key="7" data-edge-id="recipe-start">
          <rect x="683.6" y="438" width="62.8" height="14" rx="3" class="c-mask"/>
          <text x="715" y="448" class="t-muted" font-size="8" text-anchor="middle">鍚姩 Recipe</text>
        </g>
        <g data-detail="context" data-edge-from="recipe" data-edge-to="executors" data-edge-label="鎵ц鍙楅檺姝ラ" data-edge-key="8" data-edge-id="recipe-execute">
          <rect x="943.7" y="433" width="67.6" height="14" rx="3" class="c-mask"/>
          <text x="977.5" y="443" class="t-muted" font-size="8" text-anchor="middle">鎵ц鍙楅檺姝ラ</text>
        </g>
        <g data-detail="context" data-edge-from="executors" data-edge-to="external" data-edge-label="瀹樻柟鍗忚璋冪敤" data-edge-key="9" data-edge-id="executor-service">
          <rect x="1105.45" y="481" width="67.6" height="14" rx="3" class="c-mask"/>
          <text x="1139.25" y="491" class="t-muted" font-size="8" text-anchor="middle">瀹樻柟鍗忚璋冪敤</text>
        </g>
        <g data-detail="context" data-edge-from="recipe" data-edge-to="credentials" data-edge-label="credential:// 寮曠敤" data-edge-key="10" data-edge-id="recipe-secret">
          <rect x="807.3" y="504" width="96.39999999999999" height="14" rx="3" class="c-mask"/>
          <text x="855.5" y="514" class="t-security" font-size="8" text-anchor="middle">credential:// 寮曠敤</text>
        </g>
        <g data-detail="context" data-edge-from="recipe" data-edge-to="runtime" data-edge-label="姝ラ缁撴灉涓?Evidence" data-edge-key="11" data-edge-id="run-evidence">
          <rect x="659.4" y="532" width="101.2" height="14" rx="3" class="c-mask"/>
          <text x="710" y="542" class="t-muted" font-size="8" text-anchor="middle">姝ラ缁撴灉涓?Evidence</text>
        </g>

        <!-- Legend -->
        <g data-legend data-legend-bridge>
          <text x="40" y="724" class="t-primary" font-size="12" font-weight="650">Legend</text>
          <g data-legend-semantic-kind="frontend" data-legend-kind="frontend" data-legend-label="Frontend" data-legend-x="40" data-legend-baseline="744" data-legend-width="83">
            <rect x="40" y="735" width="16" height="10" rx="2.5" class="c-frontend" stroke-width="1"/>
            <text x="62" y="744" class="t-muted" font-size="10" font-weight="500">Frontend</text>
          </g>
          <g data-legend-semantic-kind="backend" data-legend-kind="backend" data-legend-label="Backend" data-legend-x="145" data-legend-baseline="744" data-legend-width="78">
            <rect x="145" y="735" width="16" height="10" rx="2.5" class="c-backend" stroke-width="1"/>
            <text x="167" y="744" class="t-muted" font-size="10" font-weight="500">Backend</text>
          </g>
          <g data-legend-semantic-kind="database" data-legend-kind="database" data-legend-label="Database" data-legend-x="245" data-legend-baseline="744" data-legend-width="83">
            <rect x="245" y="735" width="16" height="10" rx="2.5" class="c-database" stroke-width="1"/>
            <text x="267" y="744" class="t-muted" font-size="10" font-weight="500">Database</text>
          </g>
          <g data-legend-semantic-kind="cloud" data-legend-kind="cloud" data-legend-label="Cloud" data-legend-x="350" data-legend-baseline="744" data-legend-width="68">
            <rect x="350" y="735" width="16" height="10" rx="2.5" class="c-cloud" stroke-width="1"/>
            <text x="372" y="744" class="t-muted" font-size="10" font-weight="500">Cloud</text>
          </g>
          <g data-legend-semantic-kind="security" data-legend-kind="security" data-legend-label="Security" data-legend-x="440" data-legend-baseline="744" data-legend-width="83">
            <rect x="440" y="735" width="16" height="10" rx="2.5" class="c-security" stroke-width="1"/>
            <text x="462" y="744" class="t-muted" font-size="10" font-weight="500">Security</text>
          </g>
          <g data-legend-semantic-kind="external" data-legend-kind="external" data-legend-label="External" data-legend-x="545" data-legend-baseline="744" data-legend-width="83">
            <rect x="545" y="735" width="16" height="10" rx="2.5" class="c-external" stroke-width="1"/>
            <text x="567" y="744" class="t-muted" font-size="10" font-weight="500">External</text>
          </g>
        </g>
      </svg>